<svg width="296" height="381" viewBox="0 0 296 381" fill="none" xmlns="http://www.w3.org/2000/svg">
<g style="mix-blend-mode:hard-light">
<path d="M182.5 197C236.9 197 281 152.9 281 98.5C281 44.1 236.9 0 182.5 0C128.1 0 84 44.1 84 98.5C84 152.9 128.1 197 182.5 197Z" fill="#D9D9D9"/>
<path d="M86.5 373C100.031 373 111 362.031 111 348.5C111 334.969 100.031 324 86.5 324C72.969 324 62 334.969 62 348.5C62 362.031 72.969 373 86.5 373Z" fill="#D9D9D9"/>
<path d="M98.5 348C113.688 348 126 335.688 126 320.5C126 305.312 113.688 293 98.5 293C83.3122 293 71 305.312 71 320.5C71 335.688 83.3122 348 98.5 348Z" fill="#D9D9D9"/>
<path d="M141 287C171.376 287 196 262.376 196 232C196 201.624 171.376 177 141 177C110.624 177 86 201.624 86 232C86 262.376 110.624 287 141 287Z" fill="#D9D9D9"/>
<path d="M166.5 344C178.926 344 189 333.926 189 321.5C189 309.074 178.926 299 166.5 299C154.074 299 144 309.074 144 321.5C144 333.926 154.074 344 166.5 344Z" fill="#D9D9D9"/>
<path d="M202 353C206.971 353 211 348.971 211 344C211 339.029 206.971 335 202 335C197.029 335 193 339.029 193 344C193 348.971 197.029 353 202 353Z" fill="#D9D9D9"/>
<path d="M63 373C68.5228 373 73 368.523 73 363C73 357.477 68.5228 353 63 353C57.4772 353 53 357.477 53 363C53 368.523 57.4772 373 63 373Z" fill="#D9D9D9"/>
<path d="M51 374C54.3137 374 57 371.314 57 368C57 364.686 54.3137 362 51 362C47.6863 362 45 364.686 45 368C45 371.314 47.6863 374 51 374Z" fill="#D9D9D9"/>
<path d="M43 370C45.2091 370 47 368.209 47 366C47 363.791 45.2091 362 43 362C40.7909 362 39 363.791 39 366C39 368.209 40.7909 370 43 370Z" fill="#D9D9D9"/>
<path d="M174.5 381C184.717 381 193 372.717 193 362.5C193 352.283 184.717 344 174.5 344C164.283 344 156 352.283 156 362.5C156 372.717 164.283 381 174.5 381Z" fill="#D9D9D9"/>
<path d="M220.5 273C253.913 273 281 245.913 281 212.5C281 179.087 253.913 152 220.5 152C187.087 152 160 179.087 160 212.5C160 245.913 187.087 273 220.5 273Z" fill="#D9D9D9"/>
<path d="M211 329C257.944 329 296 290.944 296 244C296 197.056 257.944 159 211 159C164.056 159 126 197.056 126 244C126 290.944 164.056 329 211 329Z" fill="#D9D9D9"/>
<path d="M228 239C259.48 239 285 213.48 285 182C285 150.52 259.48 125 228 125C196.52 125 171 150.52 171 182C171 213.48 196.52 239 228 239Z" fill="#D9D9D9"/>
<path d="M125.5 341C158.913 341 186 313.913 186 280.5C186 247.087 158.913 220 125.5 220C92.0868 220 65 247.087 65 280.5C65 313.913 92.0868 341 125.5 341Z" fill="#D9D9D9"/>
<path d="M92.5 214C113.763 214 131 196.763 131 175.5C131 154.237 113.763 137 92.5 137C71.237 137 54 154.237 54 175.5C54 196.763 71.237 214 92.5 214Z" fill="#D9D9D9"/>
<path d="M42.5 240C53.2696 240 62 231.27 62 220.5C62 209.73 53.2696 201 42.5 201C31.7304 201 23 209.73 23 220.5C23 231.27 31.7304 240 42.5 240Z" fill="#D9D9D9"/>
<path d="M22.5 182C34.9264 182 45 171.926 45 159.5C45 147.074 34.9264 137 22.5 137C10.0736 137 0 147.074 0 159.5C0 171.926 10.0736 182 22.5 182Z" fill="#D9D9D9"/>
<path d="M44 273C49.5228 273 54 268.523 54 263C54 257.477 49.5228 253 44 253C38.4772 253 34 257.477 34 263C34 268.523 38.4772 273 44 273Z" fill="#D9D9D9"/>
<path d="M247 344C250.314 344 253 341.314 253 338C253 334.686 250.314 332 247 332C243.686 332 241 334.686 241 338C241 341.314 243.686 344 247 344Z" fill="#D9D9D9"/>
</g>
</svg>
